<?xml version="1.0" encoding="UTF-8" standalone="no"?>
<svg
   id="Layer_1"
   data-name="Layer 1"
   viewBox="0 0 1198.14 1600.73"
   version="1.1"
   sodipodi:docname="RaglanVector.svg"
   inkscape:export-filename="RaglanVectorPurple.png"
   inkscape:export-xdpi="96"
   inkscape:export-ydpi="96"
   inkscape:version="1.3.2 (091e20e, 2023-11-25)"
   xmlns:inkscape="http://www.inkscape.org/namespaces/inkscape"
   xmlns:sodipodi="http://sodipodi.sourceforge.net/DTD/sodipodi-0.dtd"
   xmlns="http://www.w3.org/2000/svg"
   xmlns:svg="http://www.w3.org/2000/svg">
  <sodipodi:namedview
     id="namedview3"
     pagecolor="#ffffff"
     bordercolor="#666666"
     borderopacity="1.0"
     inkscape:showpageshadow="2"
     inkscape:pageopacity="0.0"
     inkscape:pagecheckerboard="0"
     inkscape:deskcolor="#d1d1d1"
     inkscape:zoom="0.43979935"
     inkscape:cx="597.99998"
     inkscape:cy="800.36499"
     inkscape:window-width="1392"
     inkscape:window-height="847"
     inkscape:window-x="0"
     inkscape:window-y="25"
     inkscape:window-maximized="0"
     inkscape:current-layer="Layer_1" />
  <defs
     id="defs1">
    <style
       id="style1">.cls-1{fill:none;}.cls-2{fill:#1d1d1b;}</style>
  </defs>
  <title
     id="title1">RaglanVector</title>
  <path
     class="cls-1"
     d="M1263.85,1829.75c1.33,10.12,2.07,19.78,3.94,29.22,4.54,22.91,8.52,46,14.68,68.5,12.21,44.51,33.19,85,59.38,122.93,24.5,35.49,54,66.29,87.58,93a430.13,430.13,0,0,0,108,62.55c42.86,17.18,87.24,28.25,133.19,30.51,28.89,1.41,58-1.15,87-3,28.34-1.79,55.59-9.35,82.55-18a418.34,418.34,0,0,0,107.12-52.19c34.21-23.24,66.16-49.58,91.24-82.88,17-22.55,33.9-45.44,48.05-69.81,19.22-33.12,32.49-69,41.45-106.43a447.85,447.85,0,0,0,12.43-98c.25-17.37,0-34.74,0-52.11q0-521.77-.06-1043.55a90.77,90.77,0,0,0-1.59-15.3c-5.83-33.77-36.53-58.89-69.4-58.74-57.2.25-114.39.07-171.59.07-34.1,0-68.2,0-102.29-.07-4.15,0-6.85.68-9.09,4.92-5.88,11.13-12.17,22.09-19,32.68a242.78,242.78,0,0,1-56.13,61.23c-20.74,16-42.76,29.5-67.14,39.55a288.78,288.78,0,0,1-99,21.45c-14.29.59-28.74-1.68-43.08-3a230.56,230.56,0,0,1-86-26.06c-18-9.46-34.93-21.21-51.06-33.61-13.49-10.37-26.52-22-37.23-35.17-12.29-15.11-22.45-32.11-32.26-49-5.24-9-10.26-13.3-21.7-13.21-86.61.65-173.23.33-259.85.43A69.45,69.45,0,0,0,998,638.25c-32,7.67-55.32,36.7-55.32,69.23q.08,523-.18,1046c-.05,40,33.68,74.85,74.6,74.29,29.42-.41,58.84-.08,88.27-.08h8.91v-6.23c.55-128.59,1.37-257.17,1.59-385.75q.4-241.31,0-482.59c-.07-43.67,42-81.85,87-75a282,282,0,0,0,27.71,77c18.85,35.36,44.66,64.94,75.62,89.72a348.1,348.1,0,0,0,75.84,45.78,378.09,378.09,0,0,0,133.53,32.19c23.83,1.37,48-1.18,71.9-3,30.78-2.33,60.43-10.28,89.11-21.46,55.09-21.47,103-53.1,140.55-99.57,28.07-34.77,47.77-73.4,56.4-117.48.43-2.18,4-5.17,6.28-5.32,15.8-1.08,31.44.19,46.24,6.47,25.36,10.77,46.18,38.58,46.18,66.2q.07,259.94,0,519.87v312.65c0,11.61-.14,23.22,0,34.82.41,26.87-6,52.41-14.93,77.45-11.4,31.85-28,60.84-50.43,86-27.72,31.08-60.19,56-98.85,72.62-34.73,14.91-71,21.88-108.51,23-12.66.37-25.41-1.87-38.1-3.08-26.52-2.52-51.67-10.13-75.84-21-38.08-17.17-70.92-41.22-98.13-73.23-20.33-23.92-37-49.92-47.28-79.43-6.76-19.43-11.37-39.72-15.35-59.94-1.38-7-2.81-9.08-9.79-9-47.57.26-95.14.13-142.71.15C1269.93,1829.39,1267.52,1829.59,1263.85,1829.75Z"
     transform="translate(-942.46 -636.1)"
     id="path1" />
  <path
     class="cls-2"
     d="M1263.85,1829.75c3.67-.16,6.08-.36,8.5-.36,47.57,0,95.14.11,142.71-.15,7,0,8.41,2,9.79,9,4,20.22,8.59,40.51,15.35,59.94,10.26,29.51,27,55.51,47.28,79.43,27.21,32,60,56.06,98.13,73.23,24.17,10.9,49.32,18.51,75.84,21,12.69,1.21,25.44,3.45,38.1,3.08,37.47-1.1,73.78-8.07,108.51-23,38.66-16.59,71.13-41.54,98.85-72.62,22.45-25.16,39-54.15,50.43-86,9-25,15.34-50.58,14.93-77.45-.17-11.6,0-23.21,0-34.82V1468.47q0-259.93,0-519.87c0-27.62-20.82-55.43-46.18-66.2-14.8-6.28-30.44-7.55-46.24-6.47-2.28.15-5.85,3.14-6.28,5.32-8.63,44.08-28.33,82.71-56.4,117.48-37.5,46.47-85.46,78.1-140.55,99.57-28.68,11.18-58.33,19.13-89.11,21.46-23.93,1.81-48.07,4.36-71.9,3A378.09,378.09,0,0,1,1382,1090.56a348.1,348.1,0,0,1-75.84-45.78c-31-24.78-56.77-54.36-75.62-89.72a282,282,0,0,1-27.71-77c-45-6.81-87.12,31.37-87,75q.36,241.29,0,482.59c-.22,128.58-1,257.16-1.59,385.75v6.23h-8.91c-29.43,0-58.85-.33-88.27.08-40.92.56-74.65-34.24-74.6-74.29q.56-523,.18-1046c0-32.53,23.31-61.56,55.32-69.23a69.45,69.45,0,0,1,16.09-1.71c86.62-.1,173.24.22,259.85-.43,11.44-.09,16.46,4.17,21.7,13.21,9.81,16.92,20,33.92,32.26,49,10.71,13.15,23.74,24.8,37.23,35.17,16.13,12.4,33.1,24.15,51.06,33.61a230.56,230.56,0,0,0,86,26.06c14.34,1.36,28.79,3.63,43.08,3a288.78,288.78,0,0,0,99-21.45c24.38-10,46.4-23.55,67.14-39.55A242.78,242.78,0,0,0,1767.51,674c6.81-10.59,13.1-21.55,19-32.68,2.24-4.24,4.94-4.93,9.09-4.92,34.09.11,68.19.07,102.29.07,57.2,0,114.39.18,171.59-.07,32.87-.15,63.57,25,69.4,58.74a90.77,90.77,0,0,1,1.59,15.3q.11,521.77.06,1043.55c0,17.37.21,34.74,0,52.11a447.85,447.85,0,0,1-12.43,98c-9,37.46-22.23,73.31-41.45,106.43-14.15,24.37-31.05,47.26-48.05,69.81-25.08,33.3-57,59.64-91.24,82.88a418.34,418.34,0,0,1-107.12,52.19c-27,8.69-54.21,16.25-82.55,18-29,1.82-58.11,4.38-87,3-46-2.26-90.33-13.33-133.19-30.51a430.13,430.13,0,0,1-108-62.55c-33.59-26.68-63.08-57.48-87.58-93-26.19-38-47.17-78.42-59.38-122.93-6.16-22.49-10.14-45.59-14.68-68.5C1265.92,1849.53,1265.18,1839.87,1263.85,1829.75Zm27.79-1159.21c-3.5,8.28-7.65,15.88-10,24-6.71,23.71-15.4,47.33-18.08,71.56-2.11,19.14,2,39.47,6,58.7,10.49,49.77,34.29,92.93,69.44,129.66a272.92,272.92,0,0,0,92.6,63.38,268.28,268.28,0,0,0,86.77,20.93,280.65,280.65,0,0,0,80.28-6.1q69.08-15.53,122.13-61.81c38.34-33.54,66.26-74.58,80.57-123.74a329,329,0,0,0,11.85-61.75c1.27-14-2.13-28.51-4.53-42.62-4.23-24.79-11.62-48.65-23.62-71.11-53.6,102.31-159.8,161.76-275.24,149.12C1411.88,810,1339.7,758.4,1291.64,670.54Z"
     transform="translate(-942.46 -636.1)"
     id="path2"
     style="fill:#663399;fill-opacity:1" />
  <path
     class="cls-1"
     d="M1291.64,670.54C1339.7,758.4,1411.88,810,1509.9,820.75c115.44,12.64,221.64-46.81,275.24-149.12,12,22.46,19.39,46.32,23.62,71.11,2.4,14.11,5.8,28.66,4.53,42.62a329,329,0,0,1-11.85,61.75c-14.31,49.16-42.23,90.2-80.57,123.74q-52.93,46.32-122.13,61.81a280.65,280.65,0,0,1-80.28,6.1,268.28,268.28,0,0,1-86.77-20.93,272.92,272.92,0,0,1-92.6-63.38c-35.15-36.73-58.95-79.89-69.44-129.66-4.05-19.23-8.15-39.56-6-58.7,2.68-24.23,11.37-47.85,18.08-71.56C1284,686.42,1288.14,678.82,1291.64,670.54Z"
     transform="translate(-942.46 -636.1)"
     id="path3" />
</svg>
